<svg width="28" height="24" viewBox="0 0 32 28" fill="none" xmlns="http://www.w3.org/2000/svg">
    <path
        d="M29 14H24V10C24 7.8125 25.75 6 28 6H28.5C29.3125 6 30 5.375 30 4.5V1.5C30 0.6875 29.3125 0 28.5 0H28C22.4375 0 18 4.5 18 10V25C18 26.6875 19.3125 28 21 28H29C30.625 28 32 26.6875 32 25V17C32 15.375 30.625 14 29 14ZM11 14H6V10C6 7.8125 7.75 6 10 6H10.5C11.3125 6 12 5.375 12 4.5V1.5C12 0.6875 11.3125 0 10.5 0H10C4.4375 0 0 4.5 0 10V25C0 26.6875 1.3125 28 3 28H11C12.625 28 14 26.6875 14 25V17C14 15.375 12.625 14 11 14Z"
        fill="white" />
</svg>