<svg id="visual" viewBox="0 0 900 600" width="900" height="600" xmlns="http://www.w3.org/2000/svg" xmlns:xlink="http://www.w3.org/1999/xlink" version="1.1"><rect x="0" y="0" width="900" height="600" fill="#ffffff"></rect><path d="M0 507L30 491C60 475 120 443 180 453.2C240 463.3 300 515.7 360 533.8C420 552 480 536 540 489.8C600 443.7 660 367.3 720 320.7C780 274 840 257 870 248.5L900 240L900 601L870 601C840 601 780 601 720 601C660 601 600 601 540 601C480 601 420 601 360 601C300 601 240 601 180 601C120 601 60 601 30 601L0 601Z" fill="#3c5097" stroke-linecap="round" stroke-linejoin="miter"></path></svg>