<?xml version="1.0" standalone="no"?>
<!DOCTYPE svg PUBLIC "-//W3C//DTD SVG 20010904//EN" "http://www.w3.org/TR/2001/REC-SVG-20010904/DTD/svg10.dtd">
<svg version="1.0" xmlns="http://www.w3.org/2000/svg"
    width="495.000000pt" height="205.000000pt" viewBox="0 0 495.000000 205.000000"
    preserveAspectRatio="xMidYMid meet">

    <g transform="translate(0.000000,205.000000) scale(0.100000,-0.100000)"
        fill="#3c5097" stroke="none">
        <path
            d="M4830 1925 c-255 -74 -386 -125 -566 -221 -222 -118 -372 -244 -776
-647 -178 -178 -355 -351 -394 -384 -242 -205 -437 -310 -665 -357 -86 -18
-264 -21 -341 -5 -151 31 -345 113 -558 236 -115 66 -271 145 -349 177 -125
51 -185 61 -346 61 -133 -1 -162 -4 -254 -29 -150 -41 -234 -78 -498 -217
l-83 -44 0 -247 0 -248 2475 0 2475 0 0 980 c0 539 -1 980 -2 979 -2 0 -55
-15 -118 -34z" />
    </g>
</svg>